<?xml version="1.0" encoding="UTF-8"?>
<svg xmlns="http://www.w3.org/2000/svg" xmlns:xlink="http://www.w3.org/1999/xlink" width="854" height="480" viewBox="0 0 854 480">
<defs>
<g>
<g id="glyph-0-0">
<path d="M 2 0 L 2 -0.5625 L 2.3125 -0.5625 C 2.601562 -0.5625 2.859375 -0.609375 3.078125 -0.703125 C 3.296875 -0.804688 3.40625 -1.054688 3.40625 -1.453125 L 3.40625 -8.84375 L 2.125 -8.84375 C 1.726562 -8.84375 1.453125 -8.734375 1.296875 -8.515625 C 1.148438 -8.304688 1.0625 -8.050781 1.03125 -7.75 L 0.953125 -7.1875 L 0.265625 -7.1875 L 0.328125 -9.515625 L 7.84375 -9.515625 L 7.90625 -7.1875 L 7.203125 -7.1875 L 7.140625 -7.75 C 7.109375 -8.050781 7.015625 -8.304688 6.859375 -8.515625 C 6.710938 -8.734375 6.4375 -8.84375 6.03125 -8.84375 L 4.75 -8.84375 L 4.75 -1.515625 C 4.75 -1.097656 4.851562 -0.832031 5.0625 -0.71875 C 5.28125 -0.613281 5.539062 -0.5625 5.84375 -0.5625 L 6.140625 -0.5625 L 6.140625 0 Z "/>
</g>
<g id="glyph-0-1">
<path d="M 0.234375 0 L 0.234375 -0.5625 L 0.34375 -0.5625 C 0.644531 -0.5625 0.898438 -0.613281 1.109375 -0.71875 C 1.328125 -0.832031 1.4375 -1.097656 1.4375 -1.515625 L 1.4375 -8.65625 C 1.4375 -9.050781 1.328125 -9.300781 1.109375 -9.40625 C 0.890625 -9.507812 0.632812 -9.5625 0.34375 -9.5625 L 0.234375 -9.5625 L 0.234375 -10.125 L 2.6875 -10.125 L 2.6875 -7.203125 C 2.6875 -7.035156 2.679688 -6.863281 2.671875 -6.6875 C 2.671875 -6.519531 2.664062 -6.375 2.65625 -6.25 C 2.644531 -6.125 2.640625 -6.0625 2.640625 -6.0625 L 2.703125 -6.0625 C 3.109375 -6.875 3.765625 -7.28125 4.671875 -7.28125 C 5.429688 -7.28125 6.015625 -7.070312 6.421875 -6.65625 C 6.828125 -6.238281 7.03125 -5.578125 7.03125 -4.671875 L 7.03125 -1.515625 C 7.03125 -1.097656 7.125 -0.832031 7.3125 -0.71875 C 7.5 -0.613281 7.742188 -0.5625 8.046875 -0.5625 L 8.09375 -0.5625 L 8.09375 0 L 5.765625 0 L 5.765625 -4.59375 C 5.765625 -5.175781 5.65625 -5.625 5.4375 -5.9375 C 5.226562 -6.257812 4.851562 -6.421875 4.3125 -6.421875 C 3.757812 -6.421875 3.347656 -6.222656 3.078125 -5.828125 C 2.816406 -5.441406 2.6875 -4.921875 2.6875 -4.265625 L 2.6875 -1.453125 C 2.6875 -1.054688 2.796875 -0.804688 3.015625 -0.703125 C 3.234375 -0.609375 3.488281 -0.5625 3.78125 -0.5625 L 3.828125 -0.5625 L 3.828125 0 Z "/>
</g>
<g id="glyph-0-2">
<path d="M 2.140625 -8.484375 C 1.929688 -8.484375 1.753906 -8.539062 1.609375 -8.65625 C 1.460938 -8.78125 1.390625 -8.992188 1.390625 -9.296875 C 1.390625 -9.609375 1.460938 -9.820312 1.609375 -9.9375 C 1.753906 -10.0625 1.929688 -10.125 2.140625 -10.125 C 2.347656 -10.125 2.523438 -10.0625 2.671875 -9.9375 C 2.828125 -9.820312 2.90625 -9.609375 2.90625 -9.296875 C 2.90625 -8.992188 2.828125 -8.78125 2.671875 -8.65625 C 2.523438 -8.539062 2.347656 -8.484375 2.140625 -8.484375 Z M 0.3125 0 L 0.3125 -0.5625 L 0.484375 -0.5625 C 0.773438 -0.5625 1.03125 -0.609375 1.25 -0.703125 C 1.46875 -0.804688 1.578125 -1.054688 1.578125 -1.453125 L 1.578125 -5.671875 C 1.578125 -6.066406 1.46875 -6.316406 1.25 -6.421875 C 1.03125 -6.523438 0.773438 -6.578125 0.484375 -6.578125 L 0.4375 -6.578125 L 0.4375 -7.140625 L 2.828125 -7.140625 L 2.828125 -1.515625 C 2.828125 -1.097656 2.929688 -0.832031 3.140625 -0.71875 C 3.359375 -0.613281 3.617188 -0.5625 3.921875 -0.5625 L 4.09375 -0.5625 L 4.09375 0 Z "/>
</g>
<g id="glyph-0-3">
<path d="M 3.765625 0.140625 C 3.179688 0.140625 2.660156 0.015625 2.203125 -0.234375 C 1.742188 -0.484375 1.382812 -0.875 1.125 -1.40625 C 0.863281 -1.945312 0.734375 -2.65625 0.734375 -3.53125 C 0.734375 -4.476562 0.863281 -5.222656 1.125 -5.765625 C 1.382812 -6.316406 1.738281 -6.707031 2.1875 -6.9375 C 2.632812 -7.164062 3.140625 -7.28125 3.703125 -7.28125 C 4.078125 -7.28125 4.441406 -7.226562 4.796875 -7.125 C 5.148438 -7.03125 5.441406 -6.882812 5.671875 -6.6875 C 5.910156 -6.488281 6.03125 -6.234375 6.03125 -5.921875 C 6.03125 -5.617188 5.925781 -5.398438 5.71875 -5.265625 C 5.519531 -5.140625 5.226562 -5.078125 4.84375 -5.078125 C 4.84375 -5.492188 4.765625 -5.851562 4.609375 -6.15625 C 4.453125 -6.457031 4.148438 -6.609375 3.703125 -6.609375 C 3.367188 -6.609375 3.070312 -6.519531 2.8125 -6.34375 C 2.5625 -6.164062 2.367188 -5.851562 2.234375 -5.40625 C 2.097656 -4.96875 2.03125 -4.347656 2.03125 -3.546875 C 2.03125 -2.597656 2.1875 -1.890625 2.5 -1.421875 C 2.8125 -0.960938 3.320312 -0.734375 4.03125 -0.734375 C 4.457031 -0.734375 4.820312 -0.816406 5.125 -0.984375 C 5.425781 -1.160156 5.65625 -1.390625 5.8125 -1.671875 C 5.957031 -1.546875 6.03125 -1.367188 6.03125 -1.140625 C 6.03125 -0.941406 5.945312 -0.742188 5.78125 -0.546875 C 5.613281 -0.347656 5.363281 -0.179688 5.03125 -0.046875 C 4.695312 0.078125 4.273438 0.140625 3.765625 0.140625 Z "/>
</g>
<g id="glyph-0-4">
<path d="M 0.234375 0 L 0.234375 -0.5625 L 0.34375 -0.5625 C 0.644531 -0.5625 0.898438 -0.613281 1.109375 -0.71875 C 1.328125 -0.832031 1.4375 -1.097656 1.4375 -1.515625 L 1.4375 -8.65625 C 1.4375 -9.050781 1.328125 -9.300781 1.109375 -9.40625 C 0.890625 -9.507812 0.632812 -9.5625 0.34375 -9.5625 L 0.234375 -9.5625 L 0.234375 -10.125 L 2.6875 -10.125 L 2.6875 -4.984375 C 2.6875 -4.867188 2.679688 -4.71875 2.671875 -4.53125 C 2.671875 -4.34375 2.664062 -4.15625 2.65625 -3.96875 C 2.65625 -3.78125 2.648438 -3.625 2.640625 -3.5 C 2.640625 -3.375 2.640625 -3.3125 2.640625 -3.3125 L 4.3125 -5.125 C 4.59375 -5.445312 4.78125 -5.691406 4.875 -5.859375 C 4.976562 -6.035156 5.03125 -6.1875 5.03125 -6.3125 C 5.03125 -6.425781 4.976562 -6.5 4.875 -6.53125 C 4.769531 -6.5625 4.609375 -6.578125 4.390625 -6.578125 L 4.390625 -7.140625 L 7.328125 -7.140625 L 7.328125 -6.578125 C 7.023438 -6.578125 6.722656 -6.46875 6.421875 -6.25 C 6.117188 -6.039062 5.796875 -5.738281 5.453125 -5.34375 L 4.515625 -4.296875 L 6.296875 -1.65625 C 6.523438 -1.300781 6.75 -1.03125 6.96875 -0.84375 C 7.195312 -0.65625 7.460938 -0.5625 7.765625 -0.5625 L 7.8125 -0.5625 L 7.8125 0 L 7.625 0 C 7.238281 0 6.914062 -0.0078125 6.65625 -0.03125 C 6.40625 -0.0625 6.191406 -0.117188 6.015625 -0.203125 C 5.835938 -0.285156 5.671875 -0.414062 5.515625 -0.59375 C 5.367188 -0.769531 5.203125 -1.003906 5.015625 -1.296875 L 3.671875 -3.390625 L 2.6875 -2.65625 L 2.6875 -1.453125 C 2.6875 -1.054688 2.796875 -0.804688 3.015625 -0.703125 C 3.234375 -0.609375 3.488281 -0.5625 3.78125 -0.5625 L 3.828125 -0.5625 L 3.828125 0 Z "/>
</g>
<g id="glyph-0-5">
<path d="M 0.375 0 L 0.375 -0.5625 L 0.484375 -0.5625 C 0.785156 -0.5625 1.039062 -0.613281 1.25 -0.71875 C 1.46875 -0.832031 1.578125 -1.097656 1.578125 -1.515625 L 1.578125 -5.671875 C 1.578125 -6.066406 1.472656 -6.316406 1.265625 -6.421875 C 1.054688 -6.523438 0.800781 -6.578125 0.5 -6.578125 L 0.4375 -6.578125 L 0.4375 -7.140625 L 2.59375 -7.140625 L 2.765625 -6.0625 L 2.84375 -6.0625 C 3.113281 -6.5625 3.421875 -6.890625 3.765625 -7.046875 C 4.109375 -7.203125 4.492188 -7.28125 4.921875 -7.28125 C 5.617188 -7.28125 6.164062 -7.070312 6.5625 -6.65625 C 6.957031 -6.238281 7.15625 -5.578125 7.15625 -4.671875 L 7.15625 -1.515625 C 7.15625 -1.097656 7.242188 -0.832031 7.421875 -0.71875 C 7.609375 -0.613281 7.851562 -0.5625 8.15625 -0.5625 L 8.21875 -0.5625 L 8.21875 0 L 5.90625 0 L 5.90625 -4.59375 C 5.90625 -5.175781 5.796875 -5.625 5.578125 -5.9375 C 5.359375 -6.257812 4.976562 -6.421875 4.4375 -6.421875 C 4.039062 -6.421875 3.722656 -6.320312 3.484375 -6.125 C 3.242188 -5.925781 3.070312 -5.660156 2.96875 -5.328125 C 2.875 -5.003906 2.828125 -4.648438 2.828125 -4.265625 L 2.828125 -1.453125 C 2.828125 -1.054688 2.929688 -0.804688 3.140625 -0.703125 C 3.347656 -0.609375 3.597656 -0.5625 3.890625 -0.5625 L 3.953125 -0.5625 L 3.953125 0 Z "/>
</g>
<g id="glyph-0-6">
<path d="M 3.828125 0.140625 C 2.859375 0.140625 2.097656 -0.175781 1.546875 -0.8125 C 1.003906 -1.457031 0.734375 -2.359375 0.734375 -3.515625 C 0.734375 -4.765625 0.988281 -5.703125 1.5 -6.328125 C 2.019531 -6.960938 2.75 -7.28125 3.6875 -7.28125 C 4.550781 -7.28125 5.226562 -7.007812 5.71875 -6.46875 C 6.21875 -5.9375 6.46875 -5.144531 6.46875 -4.09375 L 6.46875 -3.484375 L 2.03125 -3.484375 C 2.039062 -2.515625 2.210938 -1.804688 2.546875 -1.359375 C 2.878906 -0.921875 3.367188 -0.703125 4.015625 -0.703125 C 4.472656 -0.703125 4.863281 -0.796875 5.1875 -0.984375 C 5.507812 -1.179688 5.753906 -1.398438 5.921875 -1.640625 C 5.984375 -1.609375 6.039062 -1.550781 6.09375 -1.46875 C 6.144531 -1.394531 6.171875 -1.300781 6.171875 -1.1875 C 6.171875 -1.007812 6.085938 -0.816406 5.921875 -0.609375 C 5.753906 -0.410156 5.492188 -0.234375 5.140625 -0.078125 C 4.796875 0.0664062 4.359375 0.140625 3.828125 0.140625 Z M 5.125 -4.203125 C 5.125 -4.910156 5.015625 -5.476562 4.796875 -5.90625 C 4.578125 -6.34375 4.203125 -6.5625 3.671875 -6.5625 C 3.179688 -6.5625 2.800781 -6.359375 2.53125 -5.953125 C 2.257812 -5.546875 2.097656 -4.960938 2.046875 -4.203125 Z "/>
</g>
<g id="glyph-0-7">
<path d="M 2.796875 0.140625 C 2.128906 0.140625 1.59375 0.0195312 1.1875 -0.21875 C 0.789062 -0.46875 0.59375 -0.820312 0.59375 -1.28125 C 0.59375 -1.519531 0.640625 -1.707031 0.734375 -1.84375 C 0.835938 -1.976562 0.953125 -2.070312 1.078125 -2.125 C 1.210938 -2.175781 1.332031 -2.203125 1.4375 -2.203125 C 1.4375 -1.734375 1.539062 -1.332031 1.75 -1 C 1.957031 -0.664062 2.332031 -0.5 2.875 -0.5 C 3.34375 -0.5 3.703125 -0.613281 3.953125 -0.84375 C 4.210938 -1.070312 4.34375 -1.363281 4.34375 -1.71875 C 4.34375 -1.9375 4.296875 -2.117188 4.203125 -2.265625 C 4.109375 -2.410156 3.941406 -2.550781 3.703125 -2.6875 C 3.472656 -2.820312 3.140625 -2.984375 2.703125 -3.171875 C 2.253906 -3.378906 1.878906 -3.578125 1.578125 -3.765625 C 1.285156 -3.953125 1.0625 -4.171875 0.90625 -4.421875 C 0.757812 -4.679688 0.6875 -5.003906 0.6875 -5.390625 C 0.6875 -5.992188 0.914062 -6.457031 1.375 -6.78125 C 1.832031 -7.101562 2.441406 -7.265625 3.203125 -7.265625 C 3.835938 -7.265625 4.316406 -7.144531 4.640625 -6.90625 C 4.972656 -6.664062 5.140625 -6.375 5.140625 -6.03125 C 5.140625 -5.789062 5.054688 -5.597656 4.890625 -5.453125 C 4.734375 -5.304688 4.5 -5.234375 4.1875 -5.234375 C 4.1875 -5.679688 4.09375 -6.03125 3.90625 -6.28125 C 3.71875 -6.53125 3.425781 -6.65625 3.03125 -6.65625 C 2.582031 -6.65625 2.257812 -6.550781 2.0625 -6.34375 C 1.863281 -6.144531 1.765625 -5.890625 1.765625 -5.578125 C 1.765625 -5.242188 1.890625 -4.984375 2.140625 -4.796875 C 2.398438 -4.617188 2.828125 -4.410156 3.421875 -4.171875 C 3.890625 -3.972656 4.269531 -3.773438 4.5625 -3.578125 C 4.863281 -3.390625 5.082031 -3.164062 5.21875 -2.90625 C 5.351562 -2.644531 5.421875 -2.328125 5.421875 -1.953125 C 5.421875 -1.265625 5.179688 -0.742188 4.703125 -0.390625 C 4.222656 -0.0351562 3.585938 0.140625 2.796875 0.140625 Z "/>
</g>
</g>
</defs>
<g fill="rgb(100%, 100%, 100%)" fill-opacity="1">
<use xlink:href="#glyph-0-0" x="30" y="34.25293"/>
<use xlink:href="#glyph-0-1" x="38" y="34.25293"/>
<use xlink:href="#glyph-0-2" x="46" y="34.25293"/>
<use xlink:href="#glyph-0-3" x="50" y="34.25293"/>
<use xlink:href="#glyph-0-4" x="57" y="34.25293"/>
<use xlink:href="#glyph-0-5" x="65" y="34.25293"/>
<use xlink:href="#glyph-0-6" x="74" y="34.25293"/>
<use xlink:href="#glyph-0-7" x="81" y="34.25293"/>
<use xlink:href="#glyph-0-7" x="87" y="34.25293"/>
</g>
</svg>
